<?xml version="1.0" encoding="utf-8"?>
<!-- Generator: Adobe Illustrator 22.0.1, SVG Export Plug-In . SVG Version: 6.00 Build 0)  -->
<svg version="1.1" id="Capa_1" xmlns="http://www.w3.org/2000/svg" xmlns:xlink="http://www.w3.org/1999/xlink" x="0px" y="0px"
	 viewBox="0 0 400 70" style="enable-background:new 0 0 400 70;" xml:space="preserve">
<style type="text/css">
	.st0{fill:#32539B;}
	.st1{fill:#FFFFFF;}
	.st2{fill:#009BDB;}
</style>
<g>
	<g>
		<path id="XMLID_51_" class="st0" d="M5,35.7c0,15.9,20.2,28.9,45.1,28.9c24.9,0,45.1-12.9,45.1-28.9C95.2,19.8,75,6.9,50.1,6.9
			C25.2,6.9,5,19.8,5,35.7"/>
		<path id="XMLID_50_" class="st1" d="M9.2,35.7c0,14.5,18.3,26.2,40.9,26.2C72.7,61.9,91,50.2,91,35.7C91,21.3,72.7,9.6,50.1,9.6
			C27.5,9.6,9.2,21.3,9.2,35.7"/>
		<path id="XMLID_49_" class="st2" d="M13.5,35.7c0,13,16.4,23.5,36.6,23.5c20.2,0,36.7-10.5,36.7-23.5c0-13-16.4-23.5-36.7-23.5
			C29.9,12.3,13.5,22.8,13.5,35.7"/>
		<path id="XMLID_48_" class="st1" d="M50.1,35.7c0,7.2,9.2,13.1,20.4,13.1C81.8,48.8,91,43,91,35.7c0-7.2-9.1-13.1-20.4-13.1
			C59.2,22.7,50.1,28.5,50.1,35.7"/>
		<path id="XMLID_47_" class="st0" d="M54.3,35.7c0,5.7,7.3,10.4,16.2,10.4c8.9,0,16.2-4.6,16.2-10.4c0-5.7-7.3-10.4-16.2-10.4
			C61.6,25.4,54.3,30,54.3,35.7"/>
	</g>
	<g>
		<path id="XMLID_46_" class="st0" d="M278.1,27.5c0,0.9,0.7,1.6,1.6,1.6h0c0.9,0,1.7-0.6,1.6-1.6c0-1-0.7-1.6-1.6-1.6
			C278.9,26,278.1,26.5,278.1,27.5"/>
		<polygon id="XMLID_45_" class="st0" points="261.4,26 259.9,29 262.1,29 264.5,25.9 		"/>
		<path class="st0" d="M178.3,37.2c-0.8-0.8-1.2-2-1.2-3.3c0-1.3,0.4-2.5,1.2-3.4c0.8-0.9,1.9-1.3,3.1-1.3c1.2,0,2.3,0.4,3.1,1.3
			c0.8,0.9,1.2,2,1.2,3.4c0,1.3-0.4,2.5-1.2,3.3c-0.8,0.9-1.9,1.3-3.1,1.3C180.2,38.5,179.1,38,178.3,37.2 M178.2,26.7
			c-1,0.4-1.7,0.9-2.5,1.6c-0.8,0.7-1.3,1.5-1.7,2.4c-0.4,0.9-0.6,2-0.6,3.1c0,1.1,0.2,2.1,0.6,3.1c0.4,0.9,0.9,1.7,1.7,2.4
			c0.8,0.7,1.6,1.2,2.6,1.6c0.9,0.4,2,0.5,3.2,0.5c1.2,0,2.3-0.2,3.2-0.5c1-0.4,1.8-0.9,2.5-1.6c0.8-0.7,1.3-1.4,1.7-2.4
			c0.4-0.9,0.6-1.9,0.6-3c0-1.1-0.2-2.2-0.6-3.1c-0.4-0.9-1-1.7-1.7-2.5c-0.7-0.7-1.5-1.2-2.5-1.6c-0.9-0.4-2.1-0.5-3.2-0.5
			C180.2,26.2,179.2,26.4,178.2,26.7"/>
		<path id="XMLID_42_" class="st0" d="M195.7,25.8c-1.4,0-2.3,0.4-3,1c-1,0.9-1.3,2-1.3,3.2v0.4h-1.7v2.3l1.7,0l0,8.6h3.7v-8.6h2
			v-2.3h-2v-0.5c0-0.7,0.3-1.5,1.4-1.5c0.4,0,0.7,0,1,0.1v-2.6c-0.4-0.1-0.7-0.2-1.3-0.2C196,25.7,195.9,25.8,195.7,25.8"/>
		<path id="XMLID_41_" class="st0" d="M199.4,28.5v2h-1.4v2.3h1.4v4.7c0,2.1,0.6,2.8,1.1,3.3c0.7,0.5,1.5,0.7,2.5,0.7
			c1,0,1.7-0.1,2.2-0.2v-2.6c-0.4,0-0.6,0.1-0.9,0.1c-0.6,0-1.2-0.4-1.2-1.6v-4.4h2.4v-2.3h-2.4v-2.9L199.4,28.5"/>
		<path class="st0" d="M243.2,35.8c0-1.6,0.3-3.2,1.2-3.2c0.9,0,1.2,1.3,1.2,3.1c0,1.5-0.2,3.2-1.1,3.2h0h0
			C243.5,39,243.2,37.8,243.2,35.8 M239.5,35.9c0,3.4,1.7,5.6,4.8,5.6c3.7,0,4.9-2.8,4.9-5.7c0-3.2-1.7-5.5-4.8-5.5
			C241.9,30.2,239.5,32.1,239.5,35.9"/>
		<path id="XMLID_38_" class="st0" d="M233.5,30.6c-0.5,0.3-1,0.7-1.3,1.1h-0.1c-0.4-0.8-1.2-1.4-2.6-1.4c-1.2,0-2.3,0.6-3,1.4h-0.1
			l-0.2-1.3H223c0,1.1,0.1,2.3,0.1,3.5l0,7.3h3.7v-6.9l0.2-0.7c0.2-0.5,0.6-0.7,1-0.7c0.8,0,1,0.9,1,1.5v6.8h3.7l0-6.9l0.1-0.7
			c0.3-0.5,0.6-0.7,1.1-0.7c0.8,0,1,0.8,1,1.9l0,6.4h3.7v-6.7c0-2.6-0.8-4.2-3.2-4.3c0,0-0.1,0-0.1,0
			C234.6,30.2,234,30.4,233.5,30.6"/>
		<path class="st0" d="M269.9,35.9c0-1.5,0.4-3,1.5-3c0.3,0,0.7,0.3,0.8,0.6l0.1,0.8v2.8l-0.1,0.8c-0.1,0.4-0.6,0.6-0.9,0.6
			c0,0,0,0,0,0C270.4,38.7,269.9,37.7,269.9,35.9 M266.3,36c0,2.4,0.9,5.1,3.7,5.2c0.9,0,1.8-0.3,2.2-0.9h0.2v0.6
			c0,1.3-0.6,2.4-2.3,2.4c-1,0-1.6-0.2-2.3-0.4l-0.7,2.5c1,0.4,2,0.5,3.2,0.5c2,0,3.2-0.4,4.2-1.2c1.1-0.9,1.6-2.1,1.6-4.3v-6.4
			c0-1.1,0.1-2.3,0.1-3.5H273l-0.2,1.1h-0.2c-0.5-0.9-1.3-1.2-2.1-1.3c0,0,0,0,0,0C268.1,30.2,266.3,32.5,266.3,36"/>
		<path class="st0" d="M209.6,37.8c0-1.4,1.3-1.7,2.4-1.7v1.8l-0.1,0.5c-0.1,0.6-0.8,0.8-1.2,0.8C210.3,39.1,209.6,38.7,209.6,37.8
			 M210.7,30.2c-1.1,0-2.6,0.3-3.7,0.8v2.5c0.8-0.4,3.2-1.5,4.5-0.6c0.4,0.2,0.5,0.5,0.5,0.9V34c-2.8,0-5.7,1.1-5.7,4
			c0,2,1.4,3.4,3.2,3.4c1.1,0,2.1-0.4,2.8-1.2h0.1l0.2,1h3.3c-0.1-0.8-0.2-1.6-0.2-2.5l0-3.9c0-2.1-0.6-3.5-2.1-4.2
			c-0.8-0.3-1.6-0.5-2.6-0.5C210.9,30.2,210.8,30.2,210.7,30.2"/>
		<path class="st0" d="M259.2,35.8c0-1.6,0.3-3.2,1.2-3.2c0.9,0,1.2,1.3,1.2,3.1c0,1.5-0.2,3.2-1.1,3.2h0h0
			C259.5,39,259.2,37.8,259.2,35.8 M255.6,35.9c0,3.4,1.7,5.6,4.8,5.6c3.7,0,4.9-2.8,4.9-5.7c0-3.2-1.7-5.5-4.8-5.5
			C257.9,30.2,255.6,32.1,255.6,35.9"/>
		<polygon id="XMLID_31_" class="st0" points="216.1,26 216.1,27.5 217.5,27.5 217.5,41.2 221.2,41.2 221.2,25.9 		"/>
		<polygon id="XMLID_30_" class="st0" points="249.2,26 249.2,27.5 250.6,27.5 250.6,41.2 254.3,41.2 254.3,25.9 		"/>
		<path id="XMLID_29_" class="st0" d="M288.5,30.3c-3.4,0.1-5.7,2.2-5.8,5.7c0,3.5,2.1,5.5,5.2,5.5c1,0,1.9-0.2,2.1-0.3v-2.6
			c-0.4,0.2-1.6,0.2-1.9,0.1c-1-0.2-1.7-1.2-1.8-2.2c-0.2-1.8,0.4-3.4,2.2-3.6c0.5,0,1.4,0.1,1.7,0.1v-2.5
			C290,30.5,289.3,30.3,288.5,30.3C288.5,30.3,288.5,30.3,288.5,30.3"/>
		<path class="st0" d="M294.6,37.8c0-1.4,1.3-1.7,2.4-1.7v1.8l-0.1,0.5c-0.1,0.6-0.8,0.8-1.2,0.8C295.3,39.1,294.6,38.7,294.6,37.8
			 M295.7,30.2c-1.1,0-2.5,0.3-3.7,0.8v2.5c0.8-0.4,3.2-1.5,4.5-0.6c0.4,0.2,0.5,0.5,0.5,0.9V34c-2.7,0-5.7,1.1-5.7,4
			c0,2,1.4,3.4,3.2,3.4c1.1,0,2.1-0.4,2.8-1.2h0.1l0.2,1h3.3c-0.1-0.8-0.2-1.6-0.2-2.5l0-3.9c0-2.1-0.6-3.5-2.1-4.2
			c-0.8-0.3-1.6-0.5-2.6-0.5C295.9,30.2,295.8,30.2,295.7,30.2"/>
		<rect id="XMLID_26_" x="277.9" y="30.4" class="st0" width="3.7" height="10.9"/>
		<path class="st0" d="M308.9,36c0-0.7,0.1-1.3,0.2-1.9c0.2-0.7,0.6-1.2,1.2-1.2c0.5,0,0.8,0.5,1,1l0,0.6v2.9l-0.1,0.8
			c-0.2,0.4-0.6,0.6-0.9,0.6C309.6,38.8,308.9,38,308.9,36 M311.3,26v5.3h-0.2c-0.2-0.5-0.7-1-1.9-1c-2.1,0-3.9,1.6-4,5.5
			c0,2.8,1,5.7,3.8,5.7c1,0,2-0.6,2.5-1.4h0.1l0.2,1.2h3.2c0-1.2-0.1-2.4-0.1-3.5l0-11.8H311.3"/>
		<path class="st0" d="M321,32.6c1,0,1.3,1.2,1.3,2.4h-2.7C319.6,33.7,320.1,32.6,321,32.6 M316.1,36.2c0,3.5,1.9,5.3,5.4,5.3
			c1.3,0,2.7-0.2,3.6-0.5v-2.4c-0.7,0.2-1.9,0.4-2.9,0.4c-1.5,0-2.5-0.6-2.5-1.8l5.8,0c0.1-0.3,0.1-0.7,0.1-1.7
			c0-3.6-1.7-5.3-4.4-5.3C318.4,30.3,316.1,32.4,316.1,36.2"/>
		<polygon id="XMLID_21_" class="st0" points="325.4,26 325.4,27.5 326.8,27.5 326.8,41.2 330.4,41.2 330.4,25.9 		"/>
		<path class="st0" d="M378.7,38.2l-0.2-0.9v-2.7l0.1-0.6c0.1-0.5,0.4-1,1-1c0.6,0,1,0.4,1.2,1.1c0.2,0.5,0.2,1.3,0.2,1.9
			c0,2-0.7,2.8-1.4,2.8C379.3,38.8,378.9,38.6,378.7,38.2 M374.9,26l0,11.9c0,1.2,0,2.3-0.1,3.4h3.1l0.2-1.2h0.1
			c0.4,0.7,1,1.3,2,1.4c0.8,0.1,1.7-0.2,2.3-0.6c1.4-1,2.1-3.1,2.1-5.1c0-3.8-1.4-5.5-3.5-5.5c-1.2,0-1.9,0.5-2.4,1.2h-0.2V26H374.9
			"/>
		<path id="XMLID_18_" class="st0" d="M365.1,32h-0.2l-0.2-1.6h-3.1c0,1.1,0.1,2.4,0.1,3.6l0,7.2h3.7v-5.4c0-0.5,0.1-0.9,0.2-1.1
			c0.4-1,1.4-1.2,1.9-1.2c0.3,0,0.5,0,0.8,0v-3.2c-0.2,0-0.3,0-0.7-0.1c0,0,0,0,0,0C366.5,30.2,365.6,30.8,365.1,32"/>
		<path id="XMLID_17_" class="st0" d="M337.3,28.2c-1.6,1.4-2.4,3.3-2.4,5.7c0,1.1,0.2,2.1,0.7,3.1c0.4,1,1,1.7,1.7,2.4
			c0.6,0.6,1.5,1.1,2.5,1.5c0.9,0.4,2.1,0.6,3.3,0.6c1.1,0,2.1-0.1,3.1-0.3c1-0.3,2-0.6,3-1.2v-2.8c-1.1,0.4-1.8,0.6-2.8,0.9
			c-1,0.2-1.9,0.4-2.8,0.4c-1.4,0-2.6-0.3-3.5-1.2c-0.8-0.8-1.3-1.9-1.3-3.3c0-0.7,0.1-1.3,0.3-1.9c0.2-0.6,0.5-1.1,1-1.6
			c1-1,2.3-1.3,3.9-1.3c0.5,0,1.2,0.1,1.5,0.1c0.3,0.1,0.5,0.1,0.7,0.2v1.4h2.8v-3.5c-0.9-0.4-1.7-0.7-2.6-0.9
			c-0.9-0.2-1.8-0.3-2.8-0.3C341.1,26,339,26.8,337.3,28.2"/>
		<path class="st0" d="M353.8,37.8c0-1.4,1.3-1.7,2.4-1.7v1.8l-0.1,0.5c-0.1,0.6-0.8,0.8-1.2,0.8C354.5,39.1,353.8,38.7,353.8,37.8
			 M354.9,30.2c-1.1,0-2.6,0.3-3.7,0.8v2.5c0.8-0.4,3.2-1.5,4.5-0.6c0.3,0.2,0.5,0.5,0.5,0.9V34c-2.8,0-5.7,1.1-5.7,4
			c0,2,1.3,3.4,3.2,3.4c1.1,0,2.1-0.4,2.8-1.2h0.1l0.2,1h3.3c-0.1-0.8-0.2-1.6-0.2-2.5l0-3.9c0-2.1-0.6-3.5-2-4.2
			c-0.8-0.3-1.6-0.5-2.6-0.5C355.1,30.2,355,30.2,354.9,30.2"/>
		<rect id="XMLID_14_" x="369.3" y="30.4" class="st0" width="3.7" height="10.9"/>
		<path id="XMLID_13_" class="st0" d="M369.6,27.5c0,0.9,0.7,1.6,1.6,1.6h0c0.9,0,1.7-0.6,1.6-1.6c0-1-0.7-1.6-1.6-1.6
			C370.3,26,369.5,26.5,369.6,27.5"/>
		<path class="st0" d="M390.4,32.6c1,0,1.3,1.2,1.3,2.4H389C389,33.7,389.5,32.6,390.4,32.6 M385.5,36.2c0,3.5,1.9,5.3,5.4,5.3
			c1.3,0,2.6-0.2,3.5-0.5v-2.4c-0.6,0.2-1.9,0.4-2.9,0.4c-1.5,0-2.5-0.6-2.5-1.8l5.8,0c0.1-0.3,0.1-0.7,0.1-1.7
			c0-3.6-1.7-5.3-4.4-5.3C387.8,30.3,385.5,32.4,385.5,36.2"/>
		<path id="XMLID_10_" class="st0" d="M109.5,28.2c-1.6,1.4-2.4,3.3-2.4,5.7c0,1.1,0.2,2.1,0.7,3.1c0.4,1,0.9,1.7,1.7,2.4
			c0.6,0.6,1.5,1.1,2.5,1.5c0.9,0.4,2.1,0.6,3.3,0.6c1.1,0,2.1-0.1,3.1-0.3c1-0.3,2-0.6,3-1.2v-2.8c-1.1,0.4-1.7,0.6-2.8,0.9
			c-1,0.2-1.9,0.4-2.8,0.4c-1.4,0-2.6-0.3-3.5-1.2c-0.9-0.8-1.3-1.9-1.3-3.3c0-0.7,0.1-1.3,0.3-1.9c0.2-0.6,0.5-1.1,1-1.6
			c1-1,2.3-1.3,3.9-1.3c0.5,0,1.2,0.1,1.5,0.1c0.4,0.1,0.5,0.1,0.7,0.2v1.4h2.8v-3.5c-0.9-0.4-1.7-0.7-2.6-0.9
			c-0.9-0.2-1.8-0.3-2.8-0.3C113.2,26,111.1,26.8,109.5,28.2"/>
		<rect id="XMLID_9_" x="128.7" y="30.4" class="st0" width="3.7" height="10.9"/>
		<path id="XMLID_8_" class="st0" d="M140.7,30.2c-1.3,0-2.3,0.6-3,1.4h-0.2l-0.2-1.3h-3.2c0,1.1,0.1,2.3,0.1,3.4v7.4h3.7v-6.5
			c0-0.7,0.1-0.9,0.2-1.1c0.2-0.4,0.6-0.7,1-0.7c0.8,0,1.1,0.7,1.1,1.5l0,6.8h3.7v-6.8C144,32.1,143.2,30.2,140.7,30.2L140.7,30.2"
			/>
		<path id="XMLID_7_" class="st0" d="M156.5,30.3c-3.4,0.1-5.7,2.2-5.8,5.7c-0.1,3.5,2.1,5.5,5.2,5.5c1,0,1.9-0.2,2.1-0.3v-2.6
			c-0.4,0.2-1.6,0.2-1.9,0.1c-1.1-0.2-1.7-1.2-1.8-2.2c-0.2-1.8,0.4-3.4,2.2-3.6c0.5,0,1.4,0.1,1.7,0.1v-2.5
			C158,30.5,157.4,30.3,156.5,30.3C156.6,30.3,156.5,30.3,156.5,30.3"/>
		<path class="st0" d="M162.6,37.8c0-1.4,1.3-1.7,2.4-1.7v1.8l-0.1,0.5c-0.1,0.6-0.8,0.8-1.2,0.8C163.3,39.1,162.6,38.7,162.6,37.8
			 M163.7,30.2c-1.1,0-2.6,0.3-3.7,0.8v2.5c0.8-0.4,3.2-1.5,4.5-0.6c0.4,0.2,0.5,0.5,0.5,0.9V34c-2.8,0-5.7,1.1-5.7,4
			c0,2,1.4,3.4,3.2,3.4c1.1,0,2.1-0.4,2.8-1.2h0.1l0.2,1h3.3c-0.1-0.8-0.2-1.6-0.2-2.5l0-3.9c0-2.1-0.6-3.5-2-4.2
			c-0.8-0.3-1.6-0.5-2.6-0.5C163.9,30.2,163.8,30.2,163.7,30.2"/>
		<rect id="XMLID_4_" x="145.9" y="30.4" class="st0" width="3.7" height="10.9"/>
		<polygon id="XMLID_3_" class="st0" points="121.7,26 121.7,27.5 123.1,27.5 123.1,41.2 126.8,41.2 126.8,25.9 		"/>
		<path id="XMLID_2_" class="st0" d="M146.1,27.5c0,0.9,0.7,1.6,1.6,1.6h0c0.9,0,1.7-0.6,1.7-1.6c0-1-0.7-1.6-1.6-1.6
			C146.8,25.9,146.1,26.5,146.1,27.5"/>
		<polygon id="XMLID_1_" class="st0" points="130.8,26 129.2,29 131.4,29 133.8,25.9 		"/>
	</g>
</g>
</svg>
