<?xml version="1.0" encoding="utf-8"?>
<!-- Generator: Adobe Illustrator 16.0.0, SVG Export Plug-In . SVG Version: 6.00 Build 0)  -->
<!DOCTYPE svg PUBLIC "-//W3C//DTD SVG 1.1//EN" "http://www.w3.org/Graphics/SVG/1.1/DTD/svg11.dtd">
<svg version="1.1" id="Capa_1" xmlns="http://www.w3.org/2000/svg" xmlns:xlink="http://www.w3.org/1999/xlink" x="0px" y="0px"
	 width="100px" height="76px" viewBox="0 0 100 76" enable-background="new 0 0 100 76" xml:space="preserve">
<g>
	<g>
		<g>
			<polygon fill="#AEADB3" points="34.904,22.195 34.904,19.841 38.708,19.841 38.708,18.417 34.904,18.417 34.904,16.241 
				39.306,16.241 39.306,14.702 33.148,14.702 33.148,23.734 39.42,23.734 39.42,22.195 			"/>
		</g>
	</g>
	<g>
		<g>
			<polygon fill="#AEADB3" points="32.172,29.188 32.172,27.841 27.667,27.841 27.667,34.477 29.2,34.477 29.2,31.86 31.648,31.86 
				31.648,30.617 29.2,30.617 29.2,29.188 			"/>
		</g>
	</g>
	<g>
		<g>
			<path fill="#AEADB3" d="M44.133,27.841h-2.832v6.635h1.533v-2.14c1.214,0,2.138,0.167,2.883-0.691
				C47.065,30.091,45.89,27.841,44.133,27.841z M44.086,31.001h-1.252v-1.813c1.151,0,1.626-0.137,1.855,0.495
				C44.88,30.211,44.667,31.001,44.086,31.001z"/>
		</g>
	</g>
	<g>
		<g>
			<polygon fill="#AEADB3" points="25.115,40.66 25.115,41.669 26.332,41.669 26.332,44.876 27.49,44.876 27.49,41.669 
				28.702,41.669 28.702,40.66 			"/>
		</g>
	</g>
	<g>
		<g>
			<polygon fill="#AEADB3" points="45.359,43.866 47.212,41.521 47.212,40.66 43.994,40.66 43.994,41.669 45.876,41.669 
				43.905,44.015 43.905,44.876 47.248,44.876 47.248,43.866 			"/>
		</g>
	</g>
	<g>
		<g>
			<path fill="#AEADB3" d="M35.272,40.812c-1.39,0.617-1.709,2.353-0.704,3.432c0.838,0.9,2.253,0.879,3.088,0.018
				C39.285,42.581,37.389,39.873,35.272,40.812z M36.558,43.787c-0.551,0.292-1.402-0.017-1.402-1.013
				c0-1.207,1.204-1.379,1.689-0.774C37.221,42.466,37.183,43.454,36.558,43.787z"/>
		</g>
	</g>
	<g>
		<g>
			<path fill="#AEADB3" d="M48.006,36.354h-23.65c-0.566,0-1.025,0.46-1.025,1.026s0.459,1.025,1.025,1.025h23.65
				c0.566,0,1.025-0.459,1.025-1.025S48.573,36.354,48.006,36.354z"/>
		</g>
	</g>
	<g>
		<g>
			<path fill="#AEADB3" d="M79.964,45.225c-0.01-0.004-11.115-4.365-11.125-4.369v-2.377c1.805-1.379,3.064-3.436,3.395-5.788
				c3.589-0.05,5.349-4.417,2.798-6.941v-3.167c0-3.099-1.202-6.017-3.384-8.216c-0.399-0.403-1.048-0.405-1.451-0.005
				c-0.402,0.399-0.404,1.048-0.005,1.451c3.11,3.134,2.79,6.54,2.79,8.84c-0.17-0.034-0.443-0.069-0.66-0.076
				c0-0.863,0.312-0.347-3.39-4.327c-0.347-0.373-0.914-0.432-1.33-0.146c-0.013,0.008-0.026,0.016-0.038,0.026
				c-0.053,0.04-5.361,3.958-12.001,3.15c-0.292-0.036-0.584,0.056-0.804,0.251c-0.386,0.341-0.346,0.746-0.346,1.045
				c-0.214,0.007-0.492,0.042-0.659,0.076v-2.069c0-6.994,7.283-11.669,13.641-8.732c0.514,0.237,1.124,0.013,1.361-0.502
				c0.238-0.513,0.014-1.123-0.501-1.361c-1.537-0.71-3.182-1.07-4.887-1.07c-2.495,0-4.806,0.789-6.704,2.127V5.902
				c0-1.6-1.302-2.902-2.902-2.902H27.514c-0.567,0-1.026,0.459-1.026,1.025c0,0.566,0.459,1.026,1.026,1.026h26.248
				c0.469,0,0.851,0.381,0.851,0.851v8.985c-1.809,2.056-2.91,4.75-2.91,7.696v3.167c-0.743,0.736-1.205,1.756-1.205,2.883
				c0,2.219,1.791,4.028,4.003,4.059c0.331,2.352,1.59,4.408,3.395,5.788v2.382c-0.009,0.004-11.104,4.36-11.113,4.364
				c-0.111,0.045-1.567,0.665-2.877,2.111h-19.55c-0.566,0-1.025,0.459-1.025,1.025c0,0.566,0.459,1.026,1.025,1.026h18.187
				c-0.924,2.009-0.745,3.126-0.745,9.436H17.953c-0.469,0-0.851-0.382-0.851-0.851V5.902c0-0.469,0.382-0.851,0.851-0.851h5.869
				c0.566,0,1.025-0.46,1.025-1.026C24.847,3.459,24.388,3,23.822,3h-5.869c-1.6,0-2.902,1.302-2.902,2.902v52.071
				c0,1.6,1.302,2.902,2.902,2.902h23.845v11.099c0,0.566,0.459,1.026,1.026,1.026c0.484,0,40.761,0,41.101,0
				c0.566,0,1.025-0.46,1.025-1.026V52.921C84.949,47.339,80.167,45.309,79.964,45.225z M72.322,26.63
				c0.382,0.028,0.737,0.163,1.033,0.378c1.519,1.107,0.822,3.496-1.033,3.628V26.63z M54.413,30.636
				c-1.041-0.074-1.864-0.945-1.864-2.003c0-1.064,0.83-1.929,1.864-2.003V30.636z M69.431,43.293l-2.636,4.522
				c-0.037-0.022-1.711-1.154-1.748-1.179c3.749-3.301,3.676-3.149,3.773-3.584L69.431,43.293z M63.374,47.982l0.996,0.672
				l-0.335,1.036h-1.321l-0.336-1.036C62.752,48.402,62.782,48.381,63.374,47.982z M59.954,42.366c0-0.175-0.006-1.032-0.006-2.711
				c2.196,0.886,4.778,0.833,6.84,0v2.711l-3.417,3.009L59.954,42.366z M62.9,51.741h0.946l1.324,13.921l-1.796,1.773l-1.796-1.773
				L62.9,51.741z M56.464,31.453c0-0.486,0-5.269,0-6.036c5.465,0.297,9.849-2.045,11.563-3.127l2.244,2.412c0,0.941,0,5.88,0,6.751
				c0,4.86-4.908,8.008-9.352,6.376C58.322,36.875,56.464,34.376,56.464,31.453z M57.922,43.055c0.098,0.433,0.011,0.27,3.775,3.584
				c-0.032,0.022-1.711,1.156-1.745,1.176l-2.635-4.522L57.922,43.055z M51.252,70.948V56.131c0-0.566-0.459-1.025-1.025-1.025
				s-1.025,0.459-1.025,1.025v14.817h-5.353c0-19.926-0.55-20.052,1.769-22.438c0.898-0.92,1.827-1.336,1.942-1.386l7.39-2.902
				l2.832,26.726H51.252L51.252,70.948z M77.546,70.948V56.131c0-0.566-0.459-1.025-1.025-1.025c-0.567,0-1.026,0.459-1.026,1.025
				v14.817h-6.529l1.426-13.465c0.06-0.563-0.348-1.068-0.911-1.127c-0.565-0.06-1.068,0.348-1.128,0.911l-1.449,13.682h-7.059
				l-2.492-23.52c0.711,1.221,1.376,3.046,3.233,2.351l0.341,1.051L59.49,65.953c-0.029,0.306,0.081,0.609,0.3,0.827
				c3.072,3.033,3.022,3.123,3.583,3.123c0.562,0,0.524-0.102,3.583-3.123c0.22-0.217,0.33-0.521,0.301-0.827L65.821,50.83
				l0.341-1.052c0.832,0.312,1.717,0.117,2.344-0.824l0.89-1.527l-0.669,6.317c-0.06,0.563,0.348,1.069,0.912,1.128
				c0.565,0.061,1.068-0.349,1.128-0.912l1.032-9.739c0.041,0.016,7.38,2.897,7.419,2.915c0.362,0.164,3.682,1.771,3.682,5.785
				v18.027H77.546L77.546,70.948z"/>
		</g>
	</g>
</g>
</svg>
