<?xml version="1.0" encoding="utf-8"?>
<!-- Generator: Adobe Illustrator 16.0.0, SVG Export Plug-In . SVG Version: 6.00 Build 0)  -->
<!DOCTYPE svg PUBLIC "-//W3C//DTD SVG 1.1//EN" "http://www.w3.org/Graphics/SVG/1.1/DTD/svg11.dtd">
<svg version="1.1" id="Capa_1" xmlns="http://www.w3.org/2000/svg" xmlns:xlink="http://www.w3.org/1999/xlink" x="0px" y="0px"
	 width="100px" height="76px" viewBox="0 0 100 76" enable-background="new 0 0 100 76" xml:space="preserve">
<g>
	<path fill="#AEADB3" d="M17.997,63.459v-9.793h3.521l0.21-0.109c0.053-0.028,5.366-2.773,10.521-2.773
		c0.915,0,1.779,0.087,2.569,0.259l0.412-1.885c-0.925-0.202-1.927-0.304-2.98-0.304c-5.086,0-10.094,2.335-11.199,2.884h-3.054
		v-2.499H9.957v1.93h6.11v14.796h-6.11v1.929h8.041v-2.504h5.643l7.541,2.385l0.582-1.84l-7.825-2.474H17.997z"/>
	<path fill="#AEADB3" d="M75.161,54.608c-1.338-1.872-3.511-2.991-5.814-2.991c-1.188,0-2.369,0.302-3.415,0.874l-10.746,5.861
		c-0.442-1.759-2.037-3.067-3.931-3.067h-8.746c-0.516-1.041-1.591-3.025-2.646-3.805c-0.769-0.694-1.65-1.26-2.62-1.68
		l-0.766,1.771c0.791,0.343,1.506,0.804,2.126,1.371l0.046,0.043l0.053,0.036c0.665,0.465,1.758,2.403,2.322,3.631l0.258,0.563
		h9.972c1.17,0,2.123,0.953,2.123,2.123c0,1.171-0.953,2.124-2.123,2.124H38.132v1.93h13.123c1.796,0,3.323-1.176,3.853-2.798
		l11.749-6.409c0.764-0.416,1.625-0.637,2.491-0.637c1.353,0,2.644,0.529,3.605,1.447L47.438,70.891l-13.835-4.375l-0.582,1.839
		L47.703,73l28.092-17.504L75.161,54.608z"/>
	<path fill="#AEADB3" d="M82.003,12.541v9.793H78.48l-0.209,0.109c-0.053,0.028-5.366,2.773-10.521,2.773
		c-0.916,0-1.779-0.087-2.569-0.259l-0.412,1.885c0.924,0.202,1.927,0.304,2.98,0.304c5.085,0,10.093-2.335,11.198-2.884h3.055
		v2.499h8.041v-1.929h-6.111V10.037h6.111V8.107h-8.041v2.504H76.36l-7.541-2.385l-0.582,1.84l7.824,2.474H82.003z"/>
	<path fill="#AEADB3" d="M24.838,21.392c1.338,1.873,3.512,2.991,5.814,2.991c1.188,0,2.369-0.302,3.415-0.873l10.746-5.862
		c0.442,1.759,2.037,3.067,3.932,3.067h8.745c0.516,1.041,1.591,3.026,2.646,3.805c0.769,0.694,1.65,1.26,2.621,1.68l0.766-1.771
		c-0.792-0.342-1.507-0.803-2.126-1.371l-0.047-0.043l-0.053-0.036c-0.665-0.465-1.758-2.403-2.322-3.631l-0.258-0.563h-9.971
		c-1.171,0-2.123-0.953-2.123-2.123c0-1.172,0.952-2.124,2.123-2.124h13.122V12.61H48.745c-1.796,0-3.323,1.175-3.854,2.797
		l-11.749,6.409c-0.764,0.416-1.624,0.637-2.491,0.637c-1.352,0-2.644-0.529-3.605-1.446L52.562,5.109l13.834,4.376l0.582-1.84
		L52.296,3L24.204,20.504L24.838,21.392z"/>
	<path fill="#AEADB3" d="M49.196,25.068c6.312,0,12.041,3.542,15.735,6.514c3.049,2.451,5.256,4.931,6.18,6.03
		c-1.201,1.431-4.576,5.198-9.183,8.225l1.06,1.613c6.05-3.977,9.968-9.036,10.132-9.25l0.451-0.588l-0.451-0.587
		c-0.109-0.141-2.711-3.508-6.943-6.918c-5.656-4.559-11.528-6.968-16.98-6.968c-3.761,0-7.665,1.112-11.604,3.309l0.939,1.686
		C42.18,26.1,45.768,25.068,49.196,25.068z"/>
	<path fill="#AEADB3" d="M32.216,45.118c5.656,4.559,11.528,6.968,16.979,6.968c3.922,0,7.994-1.208,12.103-3.592l-0.968-1.669
		c-3.811,2.211-7.558,3.331-11.135,3.331c-6.311,0-12.04-3.541-15.735-6.512c-3.047-2.451-5.254-4.931-6.178-6.031
		c1.244-1.479,4.816-5.456,9.637-8.52l-1.034-1.629c-6.294,3.998-10.438,9.333-10.612,9.559l-0.453,0.588l0.452,0.589
		C25.381,38.342,27.984,41.708,32.216,45.118z"/>
	<path fill="#AEADB3" d="M55.92,32.116l1.493-1.223c-0.447-0.546-0.952-1.05-1.498-1.498l-1.222,1.494
		C55.141,31.256,55.554,31.668,55.92,32.116z"/>
	<path fill="#AEADB3" d="M38.582,37.612c0,5.854,4.761,10.615,10.614,10.615c5.853,0,10.615-4.761,10.615-10.615
		c0-1.725-0.423-3.438-1.226-4.954l-1.705,0.903c0.654,1.239,1,2.64,1,4.051c0,4.789-3.896,8.686-8.684,8.686
		s-8.684-3.896-8.684-8.686c0-4.789,3.895-8.683,8.684-8.683c1.413,0,2.814,0.346,4.053,1l0.902-1.705
		c-1.516-0.802-3.229-1.225-4.955-1.225C43.343,26.999,38.582,31.76,38.582,37.612z"/>
	<path fill="#AEADB3" d="M49.196,31.502c-3.369,0-6.111,2.741-6.111,6.11c0,3.371,2.742,6.112,6.111,6.112
		c3.37,0,6.111-2.741,6.111-6.112C55.307,34.243,52.566,31.502,49.196,31.502z M49.196,41.794c-2.306,0-4.181-1.876-4.181-4.182
		s1.875-4.181,4.181-4.181s4.182,1.875,4.182,4.181S51.501,41.794,49.196,41.794z"/>
	<path fill="#AEADB3" d="M48.231,36.648h1.929v1.929h-1.929V36.648z"/>
	<path fill="#AEADB3" d="M12.079,53.16h1.93v1.93h-1.93V53.16z"/>
</g>
</svg>
