<?xml version="1.0" encoding="utf-8"?>
<!-- Generator: Adobe Illustrator 16.0.0, SVG Export Plug-In . SVG Version: 6.00 Build 0)  -->
<!DOCTYPE svg PUBLIC "-//W3C//DTD SVG 1.1//EN" "http://www.w3.org/Graphics/SVG/1.1/DTD/svg11.dtd">
<svg version="1.1" id="Capa_1" xmlns="http://www.w3.org/2000/svg" xmlns:xlink="http://www.w3.org/1999/xlink" x="0px" y="0px"
	 width="100px" height="76px" viewBox="0 0 100 76" enable-background="new 0 0 100 76" xml:space="preserve">
<g>
	<g>
		<g>
			<defs>
				<circle id="SVGID_27_" cx="50" cy="38" r="35"/>
			</defs>
			<clipPath id="SVGID_2_">
				<use xlink:href="#SVGID_27_"  overflow="visible"/>
			</clipPath>
			<g clip-path="url(#SVGID_2_)">
				<polygon fill="#AEADB3" points="1.259,36.424 1.259,39.622 50.22,39.622 50.292,39.378 42.624,41.04 43.132,42.705 
					50.436,40.462 50.871,41.329 37.201,48.49 38.213,50.659 51.522,42.342 51.882,42.921 46.313,48.345 47.616,49.502 
					52.824,43.716 53.402,44.223 45.229,57.676 47.111,58.688 54.487,44.947 55.428,45.308 52.967,52.83 54.631,53.192 
					56.658,45.597 57.308,45.597 56.729,61.292 59.188,61.292 58.537,45.597 59.333,45.453 60.997,53.264 62.949,52.83 
					60.418,45.236 61.286,45.091 68.592,58.833 70.469,57.605 62.369,44.513 63.02,43.861 68.374,49.358 69.314,48.345 
					63.89,42.993 64.396,42.415 77.63,50.588 78.716,48.563 65.047,41.402 65.191,40.391 72.642,42.776 73.147,41.185 
					65.552,39.304 65.624,38.654 81.321,39.088 81.176,36.628 65.624,37.207 65.552,36.339 73.363,34.821 72.86,32.94 
					65.337,35.182 64.974,34.604 78.789,27.37 77.559,25.274 64.324,33.447 63.89,32.869 69.53,27.587 68.301,26.358 63.093,32 
					62.369,31.637 70.617,18.186 68.446,16.956 61.214,30.988 60.563,30.698 62.732,23.175 61.068,22.741 59.333,30.337 
					58.609,30.337 58.971,14.496 56.729,14.57 57.308,30.337 56.583,30.409 54.775,22.598 52.967,23.031 55.282,30.627 
					54.487,30.842 47.111,17.029 45.156,18.186 53.546,31.42 52.75,32 47.542,26.286 46.386,27.516 51.882,32.723 51.448,33.447 
					38.284,25.129 36.982,27.443 50.871,34.53 50.581,35.472 42.843,32.94 42.554,35.037 50.436,36.339 50.364,36.442 				"/>
			</g>
		</g>
	</g>
	<circle fill="none" stroke="#AEADB3" stroke-width="2.3034" stroke-miterlimit="10" cx="50" cy="38" r="35"/>
</g>
</svg>
