<svg id="Capa_1" data-name="Capa 1" xmlns="http://www.w3.org/2000/svg" viewBox="0 0 557.91 189.66"><defs><style>.cls-1{fill:#C5C5C4;}</style></defs><path class="cls-1" d="M74.3,109.7A15.93,15.93,0,0,0,74.3,91a21.23,21.23,0,0,0-8-6.69,24.61,24.61,0,0,0-10.93-2.47H31.24l.1,63.27h7.38V118.91h16.6a24.58,24.58,0,0,0,10.93-2.47A20.93,20.93,0,0,0,74.3,109.7ZM70,100.35a8.83,8.83,0,0,1-1.89,5.45A13.67,13.67,0,0,1,62.76,110a17.62,17.62,0,0,1-7.44,1.57H38.71l-.08-22.49H55.32a17.62,17.62,0,0,1,7.44,1.57,13.76,13.76,0,0,1,5.32,4.18A9,9,0,0,1,70,100.35Z"/><path class="cls-1" d="M69.19,145.06H77.4l7.49-15.3h31.77l7.11,15.3h8.06l-30.42-66Zm32-48.72,12.18,26.25H88.39Z"/><polygon class="cls-1" points="181.3 128.45 137.51 78.57 137.51 145.06 144.89 145.06 144.89 98.59 188.68 148.57 188.68 81.79 181.3 81.79 181.3 128.45"/><path class="cls-1" d="M246.37,85.46a34.77,34.77,0,0,0-33.57,0,32.64,32.64,0,0,0-12.23,11.75,31.46,31.46,0,0,0,0,32.43,32.63,32.63,0,0,0,12.23,11.75,34.77,34.77,0,0,0,33.57,0,32.63,32.63,0,0,0,12.23-11.75,31.46,31.46,0,0,0,0-32.43A32.64,32.64,0,0,0,246.37,85.46Zm9.25,28A23.81,23.81,0,0,1,252.15,126a25.78,25.78,0,0,1-9.48,9.12,26.65,26.65,0,0,1-35.7-9.13,24,24,0,0,1,0-25,26.83,26.83,0,0,1,35.7-9.13,25.86,25.86,0,0,1,9.48,9.12A23.82,23.82,0,0,1,255.62,113.43Z"/><path class="cls-1" d="M317.91,145.06l-23-26.51c1-.06,2.06-.14,3-.25a22,22,0,0,0,6.27-1.72,20.09,20.09,0,0,0,8.21-6.25A15.8,15.8,0,0,0,316,100.26a15.6,15.6,0,0,0-1.67-7,18.7,18.7,0,0,0-4.7-6,22.3,22.3,0,0,0-7.29-4.12,27.07,27.07,0,0,0-8.86-1.43H269.91v63.27h7.38V89H293.5a18.35,18.35,0,0,1,8.1,1.71A13.57,13.57,0,0,1,306.87,95a9.07,9.07,0,0,1,1.77,5.31,8.84,8.84,0,0,1-2.1,5.69,14.05,14.05,0,0,1-5.13,4,31,31,0,0,1-11.12,1.66H279.22l28.87,33.41Z"/><path class="cls-1" d="M330.09,145.06l7.49-15.3h31.77l7.11,15.3h8.07l-30.43-66-32.22,66Zm23.74-48.72L366,122.59H341.08Z"/><polygon class="cls-1" points="451.02 100.47 451.02 145.06 458.4 145.06 458.4 77.97 424.49 124.16 390.2 78.02 390.2 145.06 397.58 145.06 397.58 100.34 424.5 136.53 451.02 100.47"/><path class="cls-1" d="M479.71,129.76h31.77l7.11,15.3h8.07l-30.43-66-32.22,66h8.21ZM496,96.34l12.19,26.25H483.21Z"/><path class="cls-1" d="M403,158.91a2.14,2.14,0,0,0,.13-.19,5.11,5.11,0,0,0,.69-2.58,5,5,0,0,0-.5-2.18,5.53,5.53,0,0,0-1.36-1.8,6.9,6.9,0,0,0-4.79-1.65h-6.36l0,19.18h7.75a8.52,8.52,0,0,0,2.72-.44,7.46,7.46,0,0,0,2.33-1.29,6.17,6.17,0,0,0,1.54-2,5.48,5.48,0,0,0,.55-2.36,5.24,5.24,0,0,0-1.18-3.34A6.72,6.72,0,0,0,403,158.91Zm-3.36-2.77a.85.85,0,0,1-.22.63,2.19,2.19,0,0,1-.71.55,3.94,3.94,0,0,1-.65.18,7.48,7.48,0,0,1-.94.05H395v-2.9h2.18a3.72,3.72,0,0,1,1.52.28,1.86,1.86,0,0,1,.75.59A1.06,1.06,0,0,1,399.64,156.14ZM395,161.7h2.67a6.81,6.81,0,0,1,2.58.4,2.39,2.39,0,0,1,.95.73,1.19,1.19,0,0,1,.31.8,1.37,1.37,0,0,1-.28.8,2.55,2.55,0,0,1-1,.79,3.83,3.83,0,0,1-1.69.35H395Z"/><polygon class="cls-1" points="416.35 158.79 410.41 150.51 405.32 150.51 414.25 163.06 414.25 169.69 418.43 169.69 418.43 163.07 427.36 150.51 422.27 150.51 416.35 158.79"/><path class="cls-1" d="M445,163.6a6.06,6.06,0,0,1-4.61,2.12,5.82,5.82,0,0,1-3-.77,5.75,5.75,0,0,1-2.16-2.08,5.36,5.36,0,0,1,0-5.6,6.06,6.06,0,0,1,7.52-2.35,6,6,0,0,1,2,1.4l1,1,3.23-2.73-1.12-1.15a10.39,10.39,0,0,0-3.4-2.34,10.26,10.26,0,0,0-4.05-.83,10.13,10.13,0,0,0-5,1.31,10,10,0,0,0-3.69,3.54,9.56,9.56,0,0,0,0,9.83,10,10,0,0,0,3.68,3.56,10.39,10.39,0,0,0,9.39.36,10,10,0,0,0,3.5-2.67l1-1.22-3.34-2.48Z"/><path class="cls-1" d="M466.6,151.63a10.42,10.42,0,0,0-10.08,0,9.83,9.83,0,0,0-3.69,3.55,9.52,9.52,0,0,0,0,9.84,9.8,9.8,0,0,0,3.69,3.54,10.46,10.46,0,0,0,10.08,0,9.91,9.91,0,0,0,3.69-3.55,9.58,9.58,0,0,0,0-9.84A9.83,9.83,0,0,0,466.6,151.63Zm-5,14.09a5.82,5.82,0,0,1-3-.77,5.76,5.76,0,0,1-2.17-2.07,5.19,5.19,0,0,1-.78-2.78,5.25,5.25,0,0,1,.78-2.79,6.11,6.11,0,0,1,8.11-2.07,5.7,5.7,0,0,1,2.15,2.07,5.44,5.44,0,0,1,0,5.58,5.68,5.68,0,0,1-2.15,2.06A5.82,5.82,0,0,1,461.56,165.72Z"/><polygon class="cls-1" points="475.48 169.69 479.66 169.69 479.66 162.19 487.34 162.19 487.34 158.03 479.66 158.03 479.66 154.65 489.48 154.65 489.48 150.51 475.48 150.51 475.48 169.69"/><path class="cls-1" d="M511.11,165l-3.33-2.48-.91,1.06a6.12,6.12,0,0,1-2.07,1.56,6,6,0,0,1-2.54.56,5.86,5.86,0,0,1-3-.77,5.75,5.75,0,0,1-2.16-2.08,5.42,5.42,0,0,1,0-5.6,6.07,6.07,0,0,1,7.53-2.35,6,6,0,0,1,2,1.4l1,1,3.24-2.73-1.12-1.15a10.49,10.49,0,0,0-3.4-2.34,10.26,10.26,0,0,0-4.05-.83,10.14,10.14,0,0,0-5.05,1.31,9.93,9.93,0,0,0-3.68,3.54,9.5,9.5,0,0,0,0,9.83,9.83,9.83,0,0,0,3.68,3.56,10.37,10.37,0,0,0,9.38.36,9.91,9.91,0,0,0,3.5-2.67Z"/><path class="cls-1" d="M522.5,148.31l-10.43,21.38h4.64l2-4.11h7.15l1.9,4.11h4.58Zm-1.77,13.15,1.65-3.39,1.57,3.39Z"/><polygon class="cls-1" points="60.72 19.8 50.97 19.8 43.41 28.67 50.39 28.67 60.72 19.8"/><path class="cls-1" d="M36.34,72.32a22.37,22.37,0,0,0,21.6,0,21.14,21.14,0,0,0,7.88-7.57,20.31,20.31,0,0,0,0-20.92,21,21,0,0,0-7.88-7.57,22.37,22.37,0,0,0-21.6,0,21,21,0,0,0-7.88,7.57,20.31,20.31,0,0,0,0,20.92A21.14,21.14,0,0,0,36.34,72.32Zm10.8-33.17a15.91,15.91,0,0,1,7.93,2.05,15.6,15.6,0,0,1,5.74,5.52,14.68,14.68,0,0,1,0,15.13,15.55,15.55,0,0,1-5.74,5.53,16.4,16.4,0,0,1-15.86,0,15.79,15.79,0,0,1-5.78-5.52,14.54,14.54,0,0,1,0-15.12,16,16,0,0,1,13.71-7.58Z"/><path class="cls-1" d="M78.8,74.69V58.29h9.85a15.91,15.91,0,0,0,7.1-1.61A13.69,13.69,0,0,0,101,52.27a10.55,10.55,0,0,0,0-12.4,13.84,13.84,0,0,0-5.26-4.38,16,16,0,0,0-7.1-1.6H73l.06,40.8Zm9.85-22.13H78.79l-.05-13h9.91a10.55,10.55,0,0,1,4.44.94A8,8,0,0,1,96.21,43a5.08,5.08,0,0,1,1.07,3.14,5,5,0,0,1-1.07,3.08,8,8,0,0,1-3.12,2.45A10.52,10.52,0,0,1,88.65,52.56Z"/><polygon class="cls-1" points="120.61 74.69 126.42 74.69 126.42 39.56 142.1 39.56 142.1 33.89 104.86 33.89 104.86 39.56 120.61 39.56 120.61 74.69"/><rect class="cls-1" x="147.1" y="33.89" width="5.75" height="40.8"/><path class="cls-1" d="M169,72.29A21.81,21.81,0,0,0,179.8,75.1a22.12,22.12,0,0,0,9.3-2,21.43,21.43,0,0,0,7.48-5.72l1-1.22L193,62.72l-.91,1.06a16.17,16.17,0,0,1-5.5,4.15,16.3,16.3,0,0,1-14.72-.56,15.6,15.6,0,0,1-5.77-5.55,14.59,14.59,0,0,1,0-15.18,15.71,15.71,0,0,1,5.77-5.56,16,16,0,0,1,7.93-2,16,16,0,0,1,11.66,5.05l1,1,4.46-3.76-1.12-1.15a22.37,22.37,0,0,0-7.29-5,22.13,22.13,0,0,0-19.49,1,21.32,21.32,0,0,0-7.86,7.57,19.75,19.75,0,0,0-2.91,10.43,20,20,0,0,0,2.9,10.46A21.42,21.42,0,0,0,169,72.29Z"/><path class="cls-1" d="M203.63,74.69l4.7-9.6h19.23l4.46,9.6h6.29L218.36,31.42,197.25,74.69Zm7.45-15.21,7.09-14.61L225,59.48Z"/></svg>