<?xml version="1.0" encoding="utf-8"?>
<!-- Generator: Adobe Illustrator 16.0.0, SVG Export Plug-In . SVG Version: 6.00 Build 0)  -->
<!DOCTYPE svg PUBLIC "-//W3C//DTD SVG 1.1//EN" "http://www.w3.org/Graphics/SVG/1.1/DTD/svg11.dtd">
<svg version="1.1" id="Capa_1" xmlns="http://www.w3.org/2000/svg" xmlns:xlink="http://www.w3.org/1999/xlink" x="0px" y="0px"
	 width="100px" height="76px" viewBox="0 0 100 76" enable-background="new 0 0 100 76" xml:space="preserve">
<g>
	<path fill="#AEADB3" d="M96.045,3.888c-0.038-0.037-0.078-0.072-0.119-0.104C95.328,3.296,94.557,3,93.715,3h-44.75
		c-0.763,0-1.381,0.602-1.381,1.344s0.618,1.344,1.381,1.344h42.417L66.252,22.713c-0.602,0.407-1.408,0.407-2.009,0L39.111,5.688
		h3.407c0.763,0,1.382-0.602,1.382-1.344C43.899,3.601,43.281,3,42.518,3h-5.739c-0.842,0-1.613,0.296-2.213,0.786
		c-0.041,0.031-0.08,0.065-0.116,0.101c-0.688,0.614-1.122,1.492-1.122,2.469v33.63c0,0.985,0.442,1.87,1.139,2.484
		c0.029,0.027,0.057,0.053,0.088,0.077c0.601,0.495,1.376,0.794,2.223,0.794h56.937c0.847,0,1.621-0.299,2.222-0.793
		c0.032-0.025,0.062-0.054,0.092-0.081c0.696-0.614,1.136-1.498,1.136-2.481V6.355C97.167,5.379,96.732,4.502,96.045,3.888z
		 M67.831,24.919l0.164-0.111l10.1,6.842c0.624,0.423,1.486,0.277,1.923-0.334c0.437-0.609,0.283-1.446-0.344-1.871l-9.262-6.276
		L94.403,6.917v32.506l-9.438-6.395c-0.625-0.425-1.487-0.275-1.922,0.333c-0.436,0.609-0.283,1.447,0.343,1.871l7.998,5.421H39.111
		L62.5,24.808l0.163,0.111C64.209,25.965,66.286,25.965,67.831,24.919z M36.093,6.917l23.991,16.253L36.093,39.424V6.917z"/>
	<path fill="#AEADB3" d="M42.79,72.5c3.27,0.647,6.6,0.666,9.893,0.052c0.75-0.141,1.241-0.844,1.098-1.574
		c-0.145-0.729-0.868-1.205-1.619-1.066c-2.933,0.548-5.901,0.533-8.821-0.045C24.521,66.145,9.887,51.913,6.059,33.611
		c-1.525-7.297,0.795-14.798,6.21-20.063c1.868-1.817,4.908-1.817,6.776,0l7.767,7.554c1.458,1.418,1.29,3.766-0.354,4.973
		l-4.83,3.547c-2.878,2.115-3.752,5.919-1.939,8.971c4.434,7.477,10.842,13.708,18.527,18.019c3.137,1.763,7.051,0.916,9.226-1.886
		l3.647-4.696c1.238-1.595,3.65-1.768,5.113-0.345l7.768,7.555c1.869,1.816,1.869,4.773,0,6.59c-1.656,1.61-3.548,2.956-5.628,4.003
		c-0.676,0.341-0.941,1.152-0.59,1.811c0.351,0.659,1.184,0.917,1.862,0.575c2.331-1.174,4.454-2.684,6.31-4.489
		c2.945-2.864,2.945-7.526,0-10.391l-7.767-7.555c-2.646-2.571-7.021-2.274-9.273,0.626l-3.646,4.697
		c-1.299,1.673-3.73,2.251-5.639,1.177c-7.267-4.077-13.325-9.967-17.517-17.034c-1.104-1.862-0.506-4.222,1.212-5.483l4.829-3.545
		c2.986-2.193,3.286-6.449,0.644-9.018l-7.768-7.555c-2.945-2.864-7.739-2.864-10.684,0c-6.073,5.905-8.676,14.315-6.965,22.498
		C7.401,53.508,22.881,68.563,42.79,72.5z"/>
</g>
</svg>
