<?xml version="1.0" encoding="utf-8"?>
<!-- Generator: Adobe Illustrator 16.0.0, SVG Export Plug-In . SVG Version: 6.00 Build 0)  -->
<!DOCTYPE svg PUBLIC "-//W3C//DTD SVG 1.1//EN" "http://www.w3.org/Graphics/SVG/1.1/DTD/svg11.dtd">
<svg version="1.1" id="Capa_1" xmlns="http://www.w3.org/2000/svg" xmlns:xlink="http://www.w3.org/1999/xlink" x="0px" y="0px"
	 width="100px" height="76px" viewBox="0 0 100 76" enable-background="new 0 0 100 76" xml:space="preserve">
<g>
	<g>
		<g>
			<path fill="#AEADB3" d="M92.447,24.22H58.553c-1.508-5.253-4.469-10.042-8.616-13.755c-6.286-5.628-14.405-8.212-22.863-7.278
				C13.51,4.688,2.662,15.638,1.279,29.224C0.524,36.64,2.553,43.973,6.989,49.87c4.252,5.651,10.354,9.559,17.222,11.039
				l7.226,7.225c0.606,0.607,1.412,0.928,2.233,0.928c0.408,0,0.82-0.08,1.213-0.242c1.187-0.492,1.953-1.639,1.953-2.922v-5.059
				c1.188-0.266,2.345-0.603,3.469-1.004v0.201c0,3.544,2.884,6.428,6.429,6.428h10.793l5.75,5.75
				C63.792,72.728,64.476,73,65.171,73c0.346,0,0.696-0.067,1.029-0.206c1.006-0.417,1.656-1.389,1.656-2.477v-3.854h24.591
				c3.545,0,6.429-2.884,6.429-6.428V30.648C98.875,27.103,95.992,24.22,92.447,24.22z M35.037,58.079
				c-0.73,0.13-1.262,0.764-1.262,1.506v6.312c0,0.036,0,0.068-0.063,0.095c-0.063,0.026-0.086,0.003-0.112-0.023l-7.548-7.548
				c-0.215-0.214-0.487-0.36-0.785-0.419c-6.316-1.255-11.939-4.797-15.833-9.972C5.463,42.75,3.648,36.181,4.324,29.533
				c0.596-5.858,3.249-11.43,7.469-15.691c4.221-4.261,9.767-6.964,15.618-7.611c1.018-0.113,2.029-0.169,3.033-0.169
				c6.471,0,12.579,2.321,17.451,6.684c5.552,4.972,8.737,12.095,8.737,19.542C56.632,45,47.55,55.845,35.037,58.079z
				 M95.814,60.035c0,1.857-1.511,3.367-3.367,3.367H66.325c-0.845,0-1.53,0.686-1.53,1.531V69.4l-5.55-5.55
				c-0.288-0.287-0.676-0.448-1.082-0.448H46.734c-1.856,0-3.368-1.51-3.368-3.367v-1.492c9.798-4.816,16.327-14.865,16.327-26.255
				c0-1.689-0.149-3.364-0.435-5.007h33.189c1.858,0,3.367,1.51,3.367,3.367V60.035L95.814,60.035z"/>
		</g>
	</g>
	<g>
		<g>
			<path fill="#AEADB3" d="M86.999,36.096c-0.597-0.598-1.566-0.598-2.164,0L69.59,51.34l-7.077-7.077
				c-0.598-0.598-1.567-0.598-2.165,0c-0.597,0.598-0.597,1.567,0,2.165l8.16,8.159c0.298,0.298,0.69,0.448,1.082,0.448
				c0.392,0,0.784-0.148,1.083-0.448L86.999,38.26C87.596,37.663,87.596,36.693,86.999,36.096z"/>
		</g>
	</g>
	<g>
		<g>
			<path fill="#AEADB3" d="M30.409,43.816c-0.001,0-0.001,0-0.002,0c-0.845,0-1.532,0.687-1.532,1.532c0,0,0,0,0,0.001
				c0,0,0,0,0,0.001c0,0.845,0.687,1.531,1.532,1.531c0.001,0,0.001,0,0.002,0c0.845,0,1.531-0.686,1.531-1.531
				c0-0.001,0-0.001,0-0.001c0-0.001,0-0.001,0-0.001C31.94,44.502,31.254,43.816,30.409,43.816z"/>
		</g>
	</g>
	<g>
		<g>
			<path fill="#AEADB3" d="M37.227,20.571c-1.854-1.854-4.276-2.875-6.82-2.875c-5.344,0.001-9.693,4.349-9.693,9.694
				c0,0.846,0.686,1.53,1.531,1.53c0.845,0,1.531-0.685,1.531-1.53c0-3.657,2.976-6.633,6.632-6.633
				c1.726,0,3.378,0.704,4.654,1.979c1.276,1.276,1.978,2.93,1.978,4.655c0,2.907-1.942,5.52-4.724,6.354
				c-2.057,0.618-3.438,2.461-3.438,4.587v0.488c0,0.845,0.685,1.53,1.53,1.53s1.531-0.685,1.531-1.53v-0.488
				c0-0.764,0.504-1.429,1.257-1.654c4.066-1.22,6.906-5.038,6.906-9.287C40.102,24.848,39.081,22.426,37.227,20.571z"/>
		</g>
	</g>
</g>
</svg>
