<?xml version="1.0" encoding="utf-8"?>
<!-- Generator: Adobe Illustrator 16.0.0, SVG Export Plug-In . SVG Version: 6.00 Build 0)  -->
<!DOCTYPE svg PUBLIC "-//W3C//DTD SVG 1.1//EN" "http://www.w3.org/Graphics/SVG/1.1/DTD/svg11.dtd">
<svg version="1.1" id="Capa_1" xmlns="http://www.w3.org/2000/svg" xmlns:xlink="http://www.w3.org/1999/xlink" x="0px" y="0px"
	 width="290px" height="76px" viewBox="-95 0 290 76" enable-background="new -95 0 290 76" xml:space="preserve">
<g>
	<g>
		<g>
			<g>
				<path fill="#C5C5C4" d="M-88.262,28.931h9.979v2.485h-9.979V28.931z M-84.658,47.811c-0.865-0.903-1.262-2.237-1.262-4V23.058
					h3.135v20.788c0,0.863,0.215,1.549,0.647,1.981c0.433,0.468,1.082,0.686,1.948,0.686h1.907v2.593h-2.341
					C-82.461,49.144-83.793,48.711-84.658,47.811z"/>
			</g>
			<g>
				<path fill="#C5C5C4" d="M-69.597,48.422c-1.262-0.611-2.234-1.515-2.884-2.702c-0.649-1.151-1.009-2.595-1.009-4.251v-4.65
					c0-1.727,0.323-3.24,0.972-4.465c0.649-1.226,1.55-2.163,2.774-2.81c1.226-0.65,2.667-0.973,4.396-0.973
					c1.658,0,3.063,0.322,4.252,0.937c1.188,0.612,2.089,1.51,2.701,2.7c0.613,1.19,0.938,2.598,0.938,4.289v3.675h-13.979v-2.595
					h10.989v-1.298c0-1.62-0.433-2.881-1.298-3.779c-0.829-0.904-2.019-1.372-3.566-1.372c-1.622,0-2.882,0.468-3.784,1.441
					c-0.9,0.937-1.332,2.306-1.332,4.036v4.934c0,1.659,0.468,2.924,1.405,3.821c0.937,0.901,2.269,1.369,3.963,1.369
					c1.116,0,2.054-0.253,2.811-0.755c0.756-0.507,1.296-1.189,1.585-2.058l2.955,0.832c-0.397,1.477-1.262,2.631-2.522,3.425
					c-1.298,0.79-2.883,1.187-4.792,1.187C-66.824,49.358-68.338,49.036-69.597,48.422z"/>
			</g>
			<g>
				<path fill="#C5C5C4" d="M-48.628,43.774c0,0.865,0.216,1.513,0.683,1.981c0.433,0.468,1.082,0.719,1.874,0.719h1.801v2.595
					h-2.196c-1.694,0-2.99-0.466-3.929-1.405c-0.937-0.937-1.369-2.233-1.369-3.928V20.859h3.137V43.774L-48.628,43.774z"/>
			</g>
			<g>
				<path fill="#C5C5C4" d="M-36.344,48.422c-1.259-0.611-2.234-1.515-2.882-2.702c-0.649-1.151-1.009-2.595-1.009-4.251v-4.65
					c0-1.727,0.324-3.24,0.973-4.465c0.647-1.226,1.55-2.163,2.774-2.81c1.226-0.65,2.667-0.973,4.396-0.973
					c1.657,0,3.062,0.322,4.252,0.937c1.188,0.612,2.089,1.51,2.701,2.7c0.613,1.19,0.937,2.598,0.937,4.289v3.675h-13.979v-2.595
					h10.989v-1.298c0-1.62-0.433-2.881-1.296-3.779c-0.829-0.904-2.019-1.372-3.566-1.372c-1.623,0-2.885,0.468-3.784,1.441
					c-0.9,0.937-1.333,2.306-1.333,4.036v4.934c0,1.659,0.468,2.924,1.405,3.821c0.938,0.901,2.27,1.369,3.963,1.369
					c1.117,0,2.054-0.253,2.81-0.755c0.757-0.507,1.298-1.189,1.586-2.058l2.956,0.832c-0.397,1.477-1.262,2.631-2.523,3.425
					c-1.297,0.79-2.882,1.187-4.793,1.187C-33.569,49.358-35.118,49.036-36.344,48.422z"/>
			</g>
			<g>
				<path fill="#C5C5C4" d="M-15.626,48.529c-1.225-0.54-2.162-1.369-2.81-2.449c-0.649-1.08-0.975-2.344-0.975-3.856v-6.592
					c0-1.479,0.325-2.771,0.975-3.818c0.647-1.044,1.585-1.876,2.81-2.416c1.224-0.54,2.738-0.827,4.467-0.827
					s3.207,0.287,4.469,0.827c1.259,0.54,2.197,1.372,2.846,2.416c0.647,1.047,0.973,2.339,0.973,3.818v6.667
					c0,1.477-0.325,2.771-0.973,3.815c-0.648,1.047-1.587,1.876-2.846,2.416c-1.262,0.54-2.74,0.829-4.469,0.829
					S-14.365,49.069-15.626,48.529z M-9.214,43.954c0.469-0.433,0.685-1.083,0.685-1.876v-6.268c0-0.794-0.216-1.405-0.685-1.838
					c-0.467-0.43-1.116-0.647-1.945-0.647s-1.477,0.218-1.944,0.647c-0.47,0.433-0.687,1.044-0.687,1.838v6.268
					c0,0.831,0.217,1.443,0.687,1.876c0.433,0.433,1.079,0.647,1.944,0.647C-10.33,44.64-9.681,44.422-9.214,43.954z"/>
			</g>
			<g>
				<path fill="#C5C5C4" d="M-0.423,28.931h11.53v4.323h-11.53V28.931z M1.812,26.193c0-1.804,0.468-3.135,1.404-4.003
					c0.937-0.865,2.378-1.331,4.359-1.331h3.566v4.614H8.8c-0.432,0-0.756,0.141-0.972,0.395c-0.217,0.286-0.324,0.611-0.324,1.044
					v22.124H1.847V26.193H1.812z"/>
			</g>
			<g>
				<path fill="#C5C5C4" d="M11.899,28.931h10.63v4.466h-10.63V28.931z M15.43,47.811c-0.935-0.903-1.405-2.237-1.405-4V23.058
					h5.695v19.706c0,0.471,0.105,0.832,0.359,1.082c0.216,0.251,0.575,0.361,0.973,0.361h1.512v4.937h-2.665
					C17.845,49.144,16.366,48.711,15.43,47.811z"/>
			</g>
			<g>
				<path fill="#C5C5C4" d="M27.175,47.844c-1.044-1.006-1.548-2.485-1.548-4.466c0-2.053,0.649-3.64,1.945-4.684
					c1.298-1.047,3.242-1.62,5.837-1.62h3.676l0.286,3.923h-3.818c-0.9,0-1.55,0.182-2.018,0.578
					c-0.467,0.395-0.684,0.973-0.684,1.766c0,0.612,0.217,1.08,0.649,1.405c0.432,0.322,1.042,0.469,1.908,0.469
					c1.188,0,2.055-0.183,2.667-0.54c0.612-0.361,0.899-0.865,0.899-1.587l0.396,2.306c-0.07,0.865-0.322,1.584-0.828,2.162
					c-0.504,0.576-1.152,1.009-1.946,1.334c-0.792,0.286-1.727,0.433-2.702,0.433C29.769,49.358,28.221,48.852,27.175,47.844z
					 M36.938,35.452c0-0.722-0.25-1.3-0.756-1.694c-0.503-0.396-1.225-0.579-2.161-0.579c-0.685,0-1.296,0.146-1.874,0.399
					c-0.576,0.287-1.008,0.647-1.333,1.113l-4.431-1.62c0.468-1.405,1.333-2.521,2.666-3.314c1.332-0.793,2.99-1.188,5.009-1.188
					c1.691,0,3.169,0.253,4.358,0.793c1.226,0.54,2.125,1.295,2.773,2.303c0.649,1.011,0.973,2.237,0.973,3.642v13.689h-5.26V35.452
					H36.938z"/>
			</g>
			<g>
				<path fill="#C5C5C4" d="M52.54,42.691c0,0.472,0.146,0.83,0.432,1.083c0.287,0.254,0.687,0.395,1.19,0.395h0.862v4.9h-2.518
					c-1.769,0-3.174-0.466-4.146-1.405c-0.973-0.937-1.477-2.233-1.477-3.928V20.859h5.656V42.691z"/>
			</g>
			<g>
				<path fill="#C5C5C4" d="M58.052,28.931h5.73v20.138h-5.73V28.931z M69.185,36.135c0-0.904-0.251-1.584-0.719-2.091
					c-0.469-0.466-1.188-0.719-2.091-0.719c-0.829,0-1.475,0.218-1.945,0.647c-0.469,0.433-0.684,1.08-0.684,1.876l-0.471-3.46
					c0.578-1.226,1.333-2.16,2.271-2.81c0.938-0.647,2.019-0.975,3.277-0.975c1.298,0,2.378,0.253,3.281,0.793
					c0.901,0.54,1.587,1.297,2.053,2.306c0.469,1.011,0.722,2.234,0.722,3.642v13.725h-5.694V36.135L69.185,36.135z M80.355,36.135
					c0-0.904-0.251-1.584-0.722-2.091c-0.469-0.466-1.154-0.719-2.02-0.719s-1.545,0.253-2.017,0.719
					c-0.468,0.468-0.719,1.154-0.719,2.019l-0.755-3.603c0.611-1.226,1.438-2.163,2.446-2.849c1.011-0.681,2.163-1.008,3.389-1.008
					c1.298,0,2.378,0.289,3.278,0.829s1.584,1.336,2.088,2.38c0.469,1.047,0.722,2.306,0.722,3.744v13.513h-5.729V36.135H80.355z"/>
			</g>
			<g>
				<path fill="#C5C5C4" d="M93.973,48.529c-1.226-0.54-2.159-1.369-2.81-2.449c-0.647-1.08-0.973-2.344-0.973-3.856v-6.592
					c0-1.479,0.325-2.771,0.973-3.818c0.65-1.044,1.584-1.876,2.81-2.416c1.224-0.54,2.741-0.827,4.469-0.827
					c1.73,0,3.207,0.287,4.469,0.827c1.259,0.54,2.195,1.372,2.843,2.416c0.65,1.047,0.979,2.339,0.979,3.818v6.667
					c0,1.477-0.328,2.771-0.979,3.815c-0.647,1.047-1.584,1.876-2.843,2.416c-1.262,0.54-2.738,0.829-4.469,0.829
					C96.676,49.358,95.196,49.069,93.973,48.529z M100.351,43.954c0.469-0.433,0.686-1.083,0.686-1.876v-6.268
					c0-0.794-0.217-1.405-0.686-1.838c-0.469-0.43-1.118-0.647-1.945-0.647c-0.829,0-1.477,0.218-1.944,0.647
					c-0.472,0.433-0.687,1.044-0.687,1.838v6.268c0,0.831,0.215,1.443,0.687,1.876c0.433,0.433,1.08,0.647,1.944,0.647
					C99.271,44.64,99.918,44.422,100.351,43.954z"/>
			</g>
			<g>
				<path fill="#C5C5C4" d="M116.602,42.691c0,0.472,0.144,0.83,0.433,1.083c0.286,0.254,0.681,0.395,1.188,0.395h0.865v4.9h-2.523
					c-1.767,0-3.171-0.466-4.144-1.405c-0.973-0.937-1.474-2.233-1.474-3.928V20.859h5.655V42.691L116.602,42.691z"/>
			</g>
			<g>
				<path fill="#C5C5C4" d="M125.318,48.529c-1.224-0.54-2.163-1.369-2.811-2.449s-0.972-2.344-0.972-3.856v-6.592
					c0-1.479,0.324-2.771,0.972-3.818c0.647-1.044,1.587-1.876,2.811-2.416c1.226-0.54,2.738-0.827,4.468-0.827
					c1.73,0,3.207,0.287,4.469,0.827c1.259,0.54,2.198,1.372,2.846,2.416c0.647,1.047,0.973,2.339,0.973,3.818v6.667
					c0,1.477-0.325,2.771-0.973,3.815c-0.647,1.047-1.587,1.876-2.846,2.416c-1.262,0.54-2.738,0.829-4.469,0.829
					C128.057,49.358,126.544,49.069,125.318,48.529z M131.731,43.954c0.469-0.433,0.686-1.083,0.686-1.876v-6.268
					c0-0.794-0.217-1.405-0.686-1.838c-0.466-0.43-1.115-0.647-1.945-0.647c-0.829,0-1.477,0.218-1.944,0.647
					c-0.472,0.433-0.687,1.044-0.687,1.838v6.268c0,0.831,0.215,1.443,0.687,1.876c0.433,0.433,1.08,0.647,1.944,0.647
					C130.616,44.64,131.266,44.422,131.731,43.954z"/>
			</g>
			<g>
				<path fill="#C5C5C4" d="M144.486,48.529c-0.9-0.54-1.584-1.369-2.052-2.449c-0.472-1.08-0.72-2.344-0.72-3.82v-6.521
					c0-1.513,0.248-2.771,0.72-3.857c0.468-1.08,1.151-1.871,2.052-2.449c0.901-0.54,1.983-0.829,3.278-0.829
					c1.083,0,2.091,0.328,2.989,0.975c0.903,0.65,1.623,1.548,2.198,2.703l-0.468,3.49c0-0.54-0.107-0.967-0.287-1.328
					c-0.179-0.361-0.471-0.65-0.864-0.865c-0.4-0.217-0.827-0.292-1.405-0.292c-0.794,0-1.444,0.256-1.912,0.758
					c-0.466,0.507-0.719,1.226-0.719,2.126v5.8c0,0.9,0.215,1.586,0.686,2.091c0.466,0.507,1.118,0.722,1.906,0.722
					c0.543,0,1.012-0.107,1.405-0.289c0.363-0.218,0.65-0.466,0.865-0.865c0.182-0.358,0.292-0.827,0.292-1.331l0.286,3.675
					c-0.396,1.113-1.044,1.945-1.945,2.557c-0.903,0.614-1.944,0.901-3.096,0.901C146.47,49.358,145.388,49.105,144.486,48.529z
					 M144.379,55.951c-1.259-0.865-2.055-2.16-2.344-3.89l5.515-1.513c0.146,0.647,0.466,1.151,0.898,1.477
					c0.433,0.361,0.973,0.502,1.625,0.502c0.752,0,1.367-0.215,1.799-0.647c0.433-0.433,0.647-1.012,0.647-1.73V28.893h5.73v21.042
					c0,1.548-0.325,2.846-1.011,3.926c-0.684,1.083-1.656,1.912-2.953,2.487c-1.295,0.576-2.846,0.865-4.684,0.865
					C147.368,57.249,145.638,56.816,144.379,55.951z"/>
			</g>
			<g>
				<path fill="#C5C5C4" d="M161.997,23.49l5.799-6.884l4.11,2.989l-6.234,6.524L161.997,23.49z M162.468,28.931h5.688v20.138
					h-5.688V28.931z"/>
			</g>
			<g>
				<path fill="#C5C5C4" d="M173.272,47.844c-1.041-1.006-1.549-2.485-1.549-4.466c0-2.053,0.648-3.64,1.981-4.684
					c1.298-1.08,3.242-1.62,5.837-1.62h3.679l0.286,3.923h-3.821c-0.9,0-1.548,0.182-2.02,0.578c-0.465,0.395-0.68,0.973-0.68,1.766
					c0,0.612,0.215,1.08,0.647,1.405c0.432,0.322,1.044,0.469,1.908,0.469c1.188,0,2.053-0.183,2.667-0.54
					c0.612-0.361,0.898-0.865,0.898-1.587l0.399,2.306c-0.074,0.865-0.325,1.584-0.826,2.162c-0.507,0.576-1.157,1.009-1.984,1.334
					c-0.829,0.325-1.732,0.433-2.702,0.433C175.867,49.358,174.316,48.852,173.272,47.844z M183.038,35.452
					c0-0.722-0.25-1.3-0.757-1.694c-0.505-0.396-1.227-0.579-2.163-0.579c-0.684,0-1.295,0.146-1.873,0.399
					c-0.579,0.287-1.006,0.647-1.331,1.113l-4.435-1.62c0.432-1.405,1.336-2.521,2.669-3.314c1.331-0.793,2.989-1.188,5.009-1.188
					c1.691,0,3.171,0.253,4.355,0.793c1.226,0.54,2.129,1.295,2.776,2.303c0.647,1.011,0.973,2.237,0.973,3.642v13.689H183V35.452
					H183.038z"/>
			</g>
		</g>
		<g>
			<path fill="#C5C5C4" d="M43.749,74.398c-22.049,0-42.154-8.287-51.195-21.146c-0.327-0.433-0.217-1.083,0.25-1.372
				c0.433-0.325,1.082-0.218,1.369,0.253c8.684,12.322,28.139,20.32,49.541,20.32c21.398,0,40.856-7.965,49.537-20.284
				c0.328-0.433,0.939-0.54,1.372-0.254c0.433,0.325,0.54,0.937,0.254,1.369C85.865,66.111,65.799,74.398,43.749,74.398z"/>
		</g>
		<g>
			<path fill="#C5C5C4" d="M-7.196,26.262c-0.18,0-0.359-0.036-0.54-0.143c-0.47-0.287-0.612-0.901-0.289-1.367
				C0.622,11.204,21.016,2.484,43.895,2.484c22.516,0,42.803,8.538,51.63,21.797c0.286,0.471,0.179,1.08-0.29,1.372
				c-0.465,0.287-1.082,0.179-1.369-0.292C85.399,12.647,65.799,4.465,43.895,4.465c-22.194,0-41.938,8.361-50.262,21.328
				C-6.547,26.119-6.871,26.262-7.196,26.262z"/>
		</g>
	</g>
</g>
</svg>
